# xmcd
#
# Track frame offsets:
#	150
#	13325
#	29298
#	40223
#	62068
#	76219
#	101181
#	116216
#	142059
#	158308
#	171632
#
# Disc length: 2576 seconds
# Revision: 0
# Processed by: cddbd v1.5.2PL0 Copyright (c) Steve Scherf et al.
# Submitted via: dBpowerAMP V12.0
#
DISCID=960a0e0b
DTITLE=The Blazing Zoos - I'll Leave Quietly
DYEAR=2010
DGENRE=Country
TTITLE0=I Didn't Have The Material (Before Now)
TTITLE1=Anywhere But Here
TTITLE2=Kumbo Prison Blues
TTITLE3=Do You Have A Sister?
TTITLE4=Dumpsville (Pop. Me)
TTITLE5=(That's What I'd Say To Me) If I Were You
TTITLE6=This Isn't Love (A Wedding Speech)
TTITLE7=Your Secret's Safe With Me
TTITLE8=My Heart Won't Be In It
TTITLE9=Open Letter
TTITLE10=Like Tirana
EXTD=
EXTT0=
EXTT1=
EXTT2=
EXTT3=
EXTT4=
EXTT5=
EXTT6=
EXTT7=
EXTT8=
EXTT9=
EXTT10=
PLAYORDER=
